PathFileType	4	(X/Y/Z)	C:/Users/dbak576/Desktop/Duncan Bakke Modelling Files/H25s1/Static_H25s1.trc	
DataRate	CameraRate	NumFrames	NumMarkers	Units	OrigDataRate	OrigDataStartFrame	OrigNumFrames	
200.00	200.00	5	62	mm	200.00	75	296	
Frame#	Time	LFHD			RFHD			LBHD			RBHD			C7			T10			CLAV			STRN			RBack			LASI			RASI			LPSI			RPSI			RACR1			RUA1			RElbow			RElbowM			RFA1			RWRR			RWRU			RCAR			LACR1			LUA1			LElbow			LElbowM			LFA1			LWRR			LWRU			LCAR			RTH1			RTH3			RTH2			RTH4			RLFC			RMFC			RTB1			RTB3			RTB2			RTB4			RLMAL			RMMAL			RCAL			RMT1			RMT5			RToe			LTH1			LTH3			LTH2			LTH4			LLFC			LMFC			LTB1			LTB3			LTB2			LTB4			LLMAL			LMMAL			LCAL			LMT1			LMT5			LToe			*61			
		X1	Y1	Z1	X2	Y2	Z2	X3	Y3	Z3	X4	Y4	Z4	X5	Y5	Z5	X6	Y6	Z6	X7	Y7	Z7	X8	Y8	Z8	X9	Y9	Z9	X10	Y10	Z10	X11	Y11	Z11	X12	Y12	Z12	X13	Y13	Z13	X14	Y14	Z14	X15	Y15	Z15	X16	Y16	Z16	X17	Y17	Z17	X18	Y18	Z18	X19	Y19	Z19	X20	Y20	Z20	X21	Y21	Z21	X22	Y22	Z22	X23	Y23	Z23	X24	Y24	Z24	X25	Y25	Z25	X26	Y26	Z26	X27	Y27	Z27	X28	Y28	Z28	X29	Y29	Z29	X30	Y30	Z30	X31	Y31	Z31	X32	Y32	Z32	X33	Y33	Z33	X34	Y34	Z34	X35	Y35	Z35	X36	Y36	Z36	X37	Y37	Z37	X38	Y38	Z38	X39	Y39	Z39	X40	Y40	Z40	X41	Y41	Z41	X42	Y42	Z42	X43	Y43	Z43	X44	Y44	Z44	X45	Y45	Z45	X46	Y46	Z46	X47	Y47	Z47	X48	Y48	Z48	X49	Y49	Z49	X50	Y50	Z50	X51	Y51	Z51	X52	Y52	Z52	X53	Y53	Z53	X54	Y54	Z54	X55	Y55	Z55	X56	Y56	Z56	X57	Y57	Z57	X58	Y58	Z58	X59	Y59	Z59	X60	Y60	Z60	X61	Y61	Z61	X62	Y62	Z62	

75	0.370	-64.18697	-268.85547	1731.97131	40.64452	-275.30945	1725.88293	-93.98632	-436.11969	1724.19885	47.81451	-447.26462	1720.13879	-22.36519	-517.11292	1571.89966	-30.78883	-513.58075	1210.17603	-36.55885	-337.13440	1505.33337	-16.15246	-251.95135	1340.67017	85.74019	-581.15680	1470.00854	-174.95897	-296.84451	1049.26746	143.98842	-325.44507	1050.86780	-87.46540	-525.25275	1096.82776	21.83159	-532.06018	1085.63257	132.98396	-433.96558	1569.70227	282.88126	-426.03137	1519.39954	429.92096	-396.15479	1455.46704	400.15750	-322.07904	1409.82532	564.06519	-339.96249	1501.28064	684.97144	-263.56998	1512.67004	696.75183	-284.43362	1430.12061	746.48297	-280.66611	1477.11377	-186.76717	-442.80231	1559.34119	-334.81662	-428.93716	1522.10107	-491.45291	-392.94241	1473.99414	-467.24246	-330.75104	1413.71509	-625.37531	-337.28964	1513.63403	-735.26367	-261.26096	1519.46765	-741.68103	-301.69489	1437.09973	-792.15759	-289.33542	1493.93579	192.60756	-460.68692	834.62378	196.89685	-463.81104	662.15149	209.18935	-405.11859	747.20715	194.78896	-464.34219	746.10907	200.92570	-465.90128	522.96472	51.84008	-463.45651	502.09982	133.65260	-422.56000	367.43436	138.51215	-451.49362	196.81303	197.69781	-440.97083	285.00937	135.52443	-437.26901	281.64111	188.00240	-516.01324	80.60149	96.43089	-482.89847	99.45573	150.19772	-576.01575	43.89676	135.92850	-354.29984	52.05505	231.14145	-397.03329	32.68269	149.33113	-300.85471	33.68342	-243.90675	-393.15909	833.89514	-224.53165	-412.47250	661.42780	-219.81494	-346.20084	742.50604	-238.62759	-401.89536	748.49011	-209.34436	-459.00781	516.68951	-67.21046	-452.23428	505.02676	-115.24088	-431.29102	361.65289	-121.01129	-452.88849	191.74477	-177.73624	-426.04727	275.96991	-117.24060	-444.35330	277.23892	-186.29851	-504.83807	73.04462	-87.34583	-481.60477	91.19087	-149.63031	-569.70898	44.79345	-133.60445	-342.21014	45.03657	-224.41620	-390.21143	28.92443	-153.68462	-285.51315	27.18804	-222.29953	-462.66510	917.00494 
76	0.375	-64.15311	-268.89359	1732.00073	40.62984	-275.33429	1725.85742	-93.92460	-436.13974	1724.19763	47.81601	-447.27228	1720.14539	-22.34284	-517.10815	1571.90051	-30.83188	-513.61078	1210.20898	-36.56069	-337.14087	1505.34448	-16.13888	-251.99107	1340.64795	85.77671	-581.16357	1469.99268	-174.90463	-296.87964	1049.25598	143.97330	-325.45126	1050.88733	-87.45864	-525.28351	1096.83362	21.84049	-532.12390	1085.63989	132.98212	-433.96457	1569.70190	282.89780	-426.03259	1519.43359	429.89755	-396.16037	1455.46118	400.17932	-322.07883	1409.84045	564.11261	-339.95895	1501.27942	684.98090	-263.59280	1512.66870	696.74152	-284.46460	1430.13367	746.50012	-280.66504	1477.14502	-186.72337	-442.87793	1559.32190	-334.80582	-428.96628	1522.10461	-491.41992	-392.95596	1473.95056	-467.26221	-330.82538	1413.70300	-625.42102	-337.36417	1513.69324	-735.27191	-261.32147	1519.46704	-741.68250	-301.73077	1437.10022	-792.14258	-289.43430	1493.93616	192.61462	-460.68417	834.61377	196.87096	-463.93826	662.05359	209.20502	-405.12692	747.21124	194.86638	-464.36057	746.13843	200.93521	-465.89819	522.96515	51.84197	-463.46561	502.07294	133.65808	-422.56180	367.40005	138.52136	-451.50589	196.81348	197.71048	-440.97784	285.05582	135.49562	-437.23526	281.66446	187.97015	-515.99756	80.59255	96.43841	-482.89838	99.43699	150.19644	-576.01813	43.87665	135.94110	-354.30261	52.05457	231.13606	-397.04993	32.67588	149.33522	-300.86938	33.67882	-243.92200	-393.16373	833.89905	-224.52409	-412.47473	661.43555	-219.78987	-346.20206	742.52332	-238.61824	-401.91766	748.48279	-209.35304	-459.03696	516.70209	-67.26134	-452.24509	505.03220	-115.25605	-431.29684	361.62604	-121.02605	-452.77530	191.73514	-177.74855	-426.01962	275.93280	-117.23022	-444.34152	277.27090	-186.44893	-504.87283	72.85657	-87.35924	-481.61862	91.17745	-149.63049	-569.65930	44.75928	-133.60614	-342.20654	45.04329	-224.02834	-390.04709	28.92886	-153.64526	-285.43542	27.14022	-222.22752	-462.65405	916.99310 
77	0.380	-64.14273	-268.88629	1731.99854	40.64902	-275.36020	1725.88818	-93.93290	-436.14612	1724.21924	47.80344	-447.30081	1720.13049	-22.36271	-517.12744	1571.89282	-30.81741	-513.60663	1210.23853	-36.57973	-337.17462	1505.33789	-16.17604	-252.00549	1340.64185	85.76523	-581.16754	1470.00879	-174.92000	-296.92819	1049.21399	143.98575	-325.44901	1050.86829	-87.46200	-525.31830	1096.82922	21.83863	-532.13031	1085.64099	132.97473	-433.96408	1569.71191	282.91357	-426.04321	1519.44409	429.90445	-396.17166	1455.45215	400.22119	-322.14963	1409.80835	564.04950	-340.03421	1501.28857	684.99316	-263.59686	1512.65491	696.72485	-284.47073	1430.16418	746.49884	-280.66202	1477.11755	-186.70163	-442.92657	1559.31372	-334.81058	-429.01138	1522.11682	-491.42624	-392.96988	1473.95142	-467.27637	-330.85388	1413.68628	-625.38385	-337.34882	1513.63135	-735.25543	-261.32471	1519.48572	-741.58655	-301.68442	1437.02856	-792.19666	-289.49872	1493.94958	192.61455	-460.68387	834.61182	196.60789	-463.54568	662.22839	209.15201	-405.12292	747.19757	194.96815	-464.39743	746.17694	200.92799	-465.89926	522.96527	51.87218	-463.50787	502.09210	133.60382	-422.57291	367.38184	138.52313	-451.50723	196.81296	197.70511	-440.96964	285.01907	135.52245	-437.27872	281.64880	187.97177	-515.99017	80.57834	96.43877	-482.90720	99.43883	150.15442	-575.98334	43.91053	135.93556	-354.31400	52.05439	231.17241	-397.05826	32.67801	149.33582	-300.83377	33.69221	-243.86526	-393.16187	833.90607	-224.50468	-412.50574	661.42773	-219.78638	-346.20248	742.52332	-238.69400	-401.96671	748.55048	-209.31297	-459.02527	516.69244	-67.33319	-452.23715	505.08344	-115.22217	-431.25943	361.66162	-121.04620	-452.82568	191.74855	-177.74234	-426.02063	275.92957	-117.23452	-444.35638	277.24890	-186.26799	-504.71442	72.87406	-87.37319	-481.64429	91.18909	-149.65936	-569.67291	44.78090	-133.62520	-342.20770	45.02872	-224.30937	-390.16986	28.93778	-153.68906	-285.47162	27.19689	-222.15924	-462.65836	917.02014 
78	0.385	-64.18297	-268.94485	1732.04114	40.63617	-275.36627	1725.90613	-93.94873	-436.18732	1724.20691	47.79763	-447.34882	1720.12573	-22.32002	-517.14886	1571.89331	-30.79615	-513.58685	1210.20691	-36.60267	-337.17593	1505.31970	-16.14487	-252.02368	1340.65613	85.78217	-581.16022	1469.99670	-174.92432	-296.93045	1049.21313	144.06271	-325.51816	1050.88684	-87.47555	-525.32275	1096.84387	21.81907	-532.13300	1085.61694	132.98068	-433.96487	1569.70386	282.91409	-426.02780	1519.44153	429.94528	-396.16528	1455.48840	400.14075	-322.13998	1409.78748	564.01495	-339.99792	1501.29578	684.95789	-263.56906	1512.65417	696.77026	-284.46524	1430.12244	746.50024	-280.66354	1477.13306	-186.72484	-442.94370	1559.31372	-334.81326	-429.04517	1522.12109	-491.41745	-392.99429	1473.92432	-467.29419	-330.95517	1413.71802	-625.40210	-337.43475	1513.60999	-735.27570	-261.36069	1519.48450	-741.89307	-301.98322	1436.83545	-792.18988	-289.56354	1493.93738	192.64067	-460.75116	834.59595	196.53885	-463.65558	662.14606	209.18707	-405.11707	747.20654	194.89940	-464.36966	746.15613	200.92630	-465.89957	522.96484	51.85642	-463.52524	502.07358	133.64882	-422.58081	367.39224	138.54535	-451.53433	196.80374	197.68436	-440.97910	285.04587	135.49844	-437.28720	281.66653	187.97368	-515.98987	80.57784	96.42777	-482.89972	99.45699	150.19092	-576.01129	43.89798	135.91551	-354.32312	52.04776	231.12585	-397.03778	32.68436	149.33105	-300.82639	33.69615	-243.88368	-393.20700	833.88776	-224.52705	-412.47495	661.42737	-219.78702	-346.20245	742.52301	-238.70790	-401.96921	748.56122	-209.31331	-459.05273	516.70239	-67.34124	-452.23123	505.08826	-115.21695	-431.25266	361.66861	-121.03109	-452.81778	191.75673	-177.72461	-426.05252	275.91797	-117.23174	-444.34250	277.26526	-186.25206	-504.70660	72.84352	-87.37354	-481.61383	91.19497	-149.64032	-569.70880	44.78875	-133.61528	-342.21478	45.01793	-224.38640	-390.19083	28.92369	-153.64774	-285.43326	27.13972	-222.19907	-462.62692	917.04187 
79	0.390	-64.18562	-268.94324	1732.01367	40.61718	-275.39740	1725.92615	-93.94773	-436.19077	1724.20056	47.73919	-447.40060	1720.11060	-22.29185	-517.15765	1571.90735	-30.81790	-513.66089	1210.20789	-36.70681	-337.18121	1505.20569	-16.16791	-252.02161	1340.62927	85.81561	-581.16730	1469.99841	-174.92509	-296.92877	1049.21484	144.10106	-325.52972	1050.90918	-87.44499	-525.33331	1096.84033	21.84823	-532.18402	1085.64197	132.94159	-433.97308	1569.71045	282.88605	-426.04178	1519.46741	429.88666	-396.16440	1455.48572	400.09186	-322.12436	1409.83508	564.01605	-339.99255	1501.29602	684.97339	-263.55182	1512.65308	696.77869	-284.46353	1430.11963	746.48236	-280.66605	1477.11414	-186.58794	-442.93649	1559.21606	-334.82974	-429.05850	1522.09973	-491.43011	-393.03180	1473.92639	-467.31442	-331.03314	1413.71240	-625.37415	-337.46118	1513.64978	-735.26141	-261.40442	1519.47668	-741.78790	-301.93820	1436.75000	-792.15924	-289.62793	1493.87158	192.62578	-460.78918	834.59058	196.53955	-463.68655	662.13898	209.19623	-405.11798	747.21002	194.88623	-464.43988	746.14795	200.92654	-465.89954	522.96490	51.85492	-463.52570	502.07382	133.66502	-422.58536	367.39102	138.54799	-451.53619	196.80240	197.66298	-440.97208	285.02835	135.44968	-437.30978	281.70218	187.96672	-515.99463	80.58935	96.45921	-482.90540	99.45998	150.19145	-576.01031	43.89754	135.91280	-354.32501	52.04904	231.13225	-397.03250	32.69329	149.31880	-300.86691	33.69250	-243.88760	-393.21063	833.88800	-224.52533	-412.47388	661.43951	-219.78731	-346.20242	742.52319	-238.65160	-401.92331	748.50604	-209.32899	-459.07019	516.71344	-67.30802	-452.22095	505.11377	-115.24896	-431.26657	361.65015	-121.03391	-452.80380	191.75769	-177.74440	-426.02219	275.93533	-117.25040	-444.34079	277.27567	-186.23729	-504.68964	72.85492	-87.38044	-481.60126	91.19090	-149.64189	-569.68079	44.77870	-133.61111	-342.18127	45.04778	-224.38116	-390.18793	28.92167	-153.69109	-285.46777	27.19772	-222.21071	-462.68469	916.99438 
